<svg xmlns="http://www.w3.org/2000/svg" viewBox="0 0 432 432"><title>github</title><path d="M141.26,219.41c-.32,0,3.55,8.2,3.66,8.2,8.46,15.1,24.77,24.48,52.28,27.08-3.92,2.93-8.64,8.48-9.29,14.9-4.94,3.14-14.87,4.18-22.58,1.78-10.82-3.35-15-24.4-31.15-21.4-3.5.64-2.81,2.92.22,4.85a31.46,31.46,0,0,1,13.16,15.43c2.75,6.42,8.54,17.89,26.84,17.89a82.08,82.08,0,0,0,12.35-.86s.14,16.39.14,22.76c0,7.35-10.09,9.42-10.09,13,0,1.4,3.34,1.53,6,1.53,5.3,0,16.34-4.35,16.34-12,0-6.07.1-26.46.1-30,0-7.8,4.25-10.27,4.25-10.27s.53,41.64-1,47.23c-1.81,6.56-5.08,5.63-5.08,8.56,0,4.36,13.28,1.07,17.69-8.5,3.4-7.43,1.91-48.3,1.91-48.3l3.63-.07s.2,18.7.08,27.25c-.13,8.86-.74,20.05,4.61,25.33,3.52,3.47,14.9,9.56,14.9,4,0-3.23-6.24-5.89-6.24-14.65V272.81c5,0,4.24,13.25,4.24,13.25l.37,24.62s-1.1,9,9.87,12.71c3.87,1.34,12.15,1.7,12.54-.54s-10-5.57-10.07-12.5c-.06-4.24.19-6.71.19-25.12s-2.51-25.21-11.28-30.64c27-2.73,43.79-9.31,51.95-26.92.64,0,3.33-8.23,3-8.23a97.93,97.93,0,0,0,3-23.83c0-25.26-12.35-34.19-14.71-38.39,3.48-19.12-.59-27.82-2.47-30.81-7-2.44-24.25,6.27-33.69,12.4-15.38-4.42-47.92-4-60.11,1.14-22.51-15.83-34.42-13.41-34.42-13.41s-7.7,13.55-2,33.39c-7.4,9.28-12.92,15.84-12.92,33.23C137.44,203,138.61,211.75,141.26,219.41ZM36,36H396V396H36Z" style="fill:#010101"/></svg>