<svg xmlns="http://www.w3.org/2000/svg" viewBox="0 0 432 432"><title>instagram</title><path d="M283.63,171.47v0c3,0,6,.06,9,0a7.34,7.34,0,0,0,7-7.3V146.78a7.39,7.39,0,0,0-7.42-7.45H275a7.4,7.4,0,0,0-7.42,7.46c0,5.73,0,11.46,0,17.19a8.4,8.4,0,0,0,.44,2.56,7.39,7.39,0,0,0,7.25,4.94ZM228,178.9a37.09,37.09,0,1,0,37.07,37.91A37.09,37.09,0,0,0,228,178.9ZM156.28,198.7v.49q0,40.64,0,81.27a7.41,7.41,0,0,0,7.27,7.25H292.42a7.4,7.4,0,0,0,7.29-7.27q0-40.58,0-81.17v-.56H282.24a57.27,57.27,0,0,1,2.26,24.08,55.93,55.93,0,0,1-7.9,22.82,56.89,56.89,0,0,1-76.35,20.08,55.6,55.6,0,0,1-22.11-22.28c-7.73-14.24-9-29.19-4.43-44.71Zm145,108.83c1-.16,1.91-.29,2.85-.5a19.82,19.82,0,0,0,15-15.34c.15-.82.27-1.64.4-2.45V142.76c-.13-.8-.24-1.61-.39-2.41a19.81,19.81,0,0,0-16.68-15.71c-.35,0-.68-.12-1-.18H154.57c-.88.16-1.78.28-2.65.48a19.74,19.74,0,0,0-15.27,16.6c0,.34-.12.68-.17,1V289.44c.17.92.3,1.87.51,2.79a19.81,19.81,0,0,0,16.62,15.12c.38,0,.78.13,1.17.18ZM36,36H396V396H36Z" style="fill:#010101"/></svg>