<svg xmlns="http://www.w3.org/2000/svg" viewBox="0 0 432 432"><title>linkedin</title><path d="M317,300.82V230.55c0-37.65-20.1-55.17-46.9-55.17-21.62,0-31.31,11.9-36.71,20.24V178.26H192.67c.54,11.5,0,122.56,0,122.56h40.74V232.37c0-3.65.26-7.31,1.34-9.93,2.94-7.32,9.64-14.9,20.89-14.9,14.75,0,20.64,11.24,20.64,27.71v65.57H317ZM149.75,161.53c14.2,0,23.05-9.42,23.05-21.19-.26-12-8.85-21.17-22.78-21.17s-23,9.14-23,21.17c0,11.77,8.84,21.19,22.52,21.19Zm20.37,139.29V178.26H129.39V300.82ZM36,36H396V396H36Z" style="fill:#010101"/></svg>