<svg xmlns="http://www.w3.org/2000/svg" width="1920" height="1080"><path d="M152,1339L40,1339L340,1342Z" fill="#92713a" stroke="#92713a" stroke-width="1.51"/><path d="M707,1303L340,1342L1146,1345Z" fill="#90a963" stroke="#90a963" stroke-width="1.51"/><path d="M6,-250L718,-254L1380,-260Z" fill="#db8154" stroke="#db8154" stroke-width="1.51"/><path d="M718,-254L1006,-217L1380,-260Z" fill="#db9266" stroke="#db9266" stroke-width="1.51"/><path d="M1439,1286L1146,1345L1690,1331Z" fill="#63a655" stroke="#63a655" stroke-width="1.51"/><path d="M1759,1308L1690,1331L2033,1239Z" fill="#28914c" stroke="#28914c" stroke-width="1.51"/><path d="M1883,1239L1759,1308L2033,1239Z" fill="#1d914c" stroke="#1d914c" stroke-width="1.51"/><path d="M1652,-249L1826,-225L2049,-232Z" fill="#8f703d" stroke="#8f703d" stroke-width="1.51"/><path d="M1950,433L2043,443L2049,243Z" fill="#96b367" stroke="#96b367" stroke-width="1.51"/><path d="M1939,514L1984,648L2071,491Z" fill="#93c380" stroke="#93c380" stroke-width="1.51"/><path d="M2049,243L2043,443L2071,491Z" fill="#93b068" stroke="#93b068" stroke-width="1.51"/><path d="M1973,819L2042,845L2092,680Z" fill="#73b25f" stroke="#73b25f" stroke-width="1.51"/><path d="M1984,648L1973,819L2092,680Z" fill="#7fb866" stroke="#7fb866" stroke-width="1.51"/><path d="M2071,491L1984,648L2092,680Z" fill="#8abb74" stroke="#8abb74" stroke-width="1.51"/><path d="M1906,105L2049,243L2092,61Z" fill="#9b904c" stroke="#9b904c" stroke-width="1.51"/><path d="M2049,243L2071,491L2092,61Z" fill="#959e57" stroke="#959e57" stroke-width="1.51"/><path d="M2071,491L2092,680L2092,61Z" fill="#91af69" stroke="#91af69" stroke-width="1.51"/><path d="M2049,-232L1974,-86L2093,-27Z" fill="#906a34" stroke="#906a34" stroke-width="1.51"/><path d="M1949,1014L2060,1162L2106,992Z" fill="#3c9c52" stroke="#3c9c52" stroke-width="1.51"/><path d="M2042,845L1949,1014L2106,992Z" fill="#54a555" stroke="#54a555" stroke-width="1.51"/><path d="M2092,680L2042,845L2106,992Z" fill="#68aa57" stroke="#68aa57" stroke-width="1.51"/><path d="M2092,61L2092,680L2106,992Z" fill="#8ab675" stroke="#8ab675" stroke-width="1.51"/><path d="M2093,-27L2092,61L2106,992Z" fill="#92a65e" stroke="#92a65e" stroke-width="1.51"/><path d="M1826,-225L1910,-185L2049,-232Z" fill="#8a6b39" stroke="#8a6b39" stroke-width="1.51"/><path d="M1974,-86L1906,105L2092,61Z" fill="#9c8243" stroke="#9c8243" stroke-width="1.51"/><path d="M1974,-86L2092,61L2093,-27Z" fill="#95753c" stroke="#95753c" stroke-width="1.51"/><path d="M1973,819L1949,1014L2042,845Z" fill="#63af59" stroke="#63af59" stroke-width="1.51"/><path d="M1910,-185L1974,-86L2049,-232Z" fill="#8d6b37" stroke="#8d6b37" stroke-width="1.51"/><path d="M1891,253L1950,433L2049,243Z" fill="#9baf62" stroke="#9baf62" stroke-width="1.51"/><path d="M2043,443L1939,514L2071,491Z" fill="#94bc78" stroke="#94bc78" stroke-width="1.51"/><path d="M1906,105L1891,253L2049,243Z" fill="#9fa256" stroke="#9fa256" stroke-width="1.51"/><path d="M1890,1190L2033,1239L2060,1162Z" fill="#17914c" stroke="#17914c" stroke-width="1.51"/><path d="M1949,1014L1890,1190L2060,1162Z" fill="#309b52" stroke="#309b52" stroke-width="1.51"/><path d="M1950,433L1939,514L2043,443Z" fill="#97bf77" stroke="#97bf77" stroke-width="1.51"/><path d="M1890,1190L1883,1239L2033,1239Z" fill="#17934d" stroke="#17934d" stroke-width="1.51"/><path d="M1891,253L1807,423L1950,433Z" fill="#a0bf6e" stroke="#a0bf6e" stroke-width="1.51"/><path d="M1774,865L1949,1014L1973,819Z" fill="#67b75d" stroke="#67b75d" stroke-width="1.51"/><path d="M1759,-104L1906,105L1974,-86Z" fill="#a28444" stroke="#a28444" stroke-width="1.51"/><path d="M1939,514L1839,491L1984,648Z" fill="#98cb84" stroke="#98cb84" stroke-width="1.51"/><path d="M1839,491L1778,738L1984,648Z" fill="#95cc7b" stroke="#95cc7b" stroke-width="1.51"/><path d="M1778,738L1973,819L1984,648Z" fill="#82c26a" stroke="#82c26a" stroke-width="1.51"/><path d="M1910,-185L1759,-104L1974,-86Z" fill="#9b773b" stroke="#9b773b" stroke-width="1.51"/><path d="M1778,738L1774,865L1973,819Z" fill="#7fc266" stroke="#7fc266" stroke-width="1.51"/><path d="M1774,865L1737,981L1949,1014Z" fill="#66b95f" stroke="#66b95f" stroke-width="1.51"/><path d="M1763,1183L1890,1190L1949,1014Z" fill="#39a456" stroke="#39a456" stroke-width="1.51"/><path d="M1737,981L1763,1183L1949,1014Z" fill="#50af5c" stroke="#50af5c" stroke-width="1.51"/><path d="M1839,491L1939,514L1950,433Z" fill="#9bc87d" stroke="#9bc87d" stroke-width="1.51"/><path d="M1807,423L1839,491L1950,433Z" fill="#a1c87a" stroke="#a1c87a" stroke-width="1.51"/><path d="M1792,195L1891,253L1906,105Z" fill="#a7a758" stroke="#a7a758" stroke-width="1.51"/><path d="M1759,-104L1769,140L1906,105Z" fill="#ae944d" stroke="#ae944d" stroke-width="1.51"/><path d="M1687,663L1778,738L1839,491Z" fill="#a0d37e" stroke="#a0d37e" stroke-width="1.51"/><path d="M1769,140L1792,195L1906,105Z" fill="#aca356" stroke="#aca356" stroke-width="1.51"/><path d="M1826,-225L1759,-104L1910,-185Z" fill="#9a773d" stroke="#9a773d" stroke-width="1.51"/><path d="M1792,195L1676,270L1807,423Z" fill="#b0bf6a" stroke="#b0bf6a" stroke-width="1.51"/><path d="M1763,1183L1883,1239L1890,1190Z" fill="#2b9d52" stroke="#2b9d52" stroke-width="1.51"/><path d="M1792,195L1807,423L1891,253Z" fill="#a8b866" stroke="#a8b866" stroke-width="1.51"/><path d="M1763,1183L1759,1308L1883,1239Z" fill="#309a51" stroke="#309a51" stroke-width="1.51"/><path d="M1052,1320L707,1303L1146,1345Z" fill="#8eb87a" stroke="#8eb87a" stroke-width="1.51"/><path d="M1759,-104L1645,126L1769,140Z" fill="#b79b51" stroke="#b79b51" stroke-width="1.51"/><path d="M1676,270L1673,388L1807,423Z" fill="#b2cb73" stroke="#b2cb73" stroke-width="1.51"/><path d="M1807,423L1617,491L1839,491Z" fill="#add282" stroke="#add282" stroke-width="1.51"/><path d="M1617,491L1687,663L1839,491Z" fill="#b0db8d" stroke="#b0db8d" stroke-width="1.51"/><path d="M1666,-106L1645,126L1759,-104Z" fill="#b5914b" stroke="#b5914b" stroke-width="1.51"/><path d="M1652,-249L1759,-104L1826,-225Z" fill="#a07a40" stroke="#a07a40" stroke-width="1.51"/><path d="M1737,981L1588,1142L1763,1183Z" fill="#57b45e" stroke="#57b45e" stroke-width="1.51"/><path d="M1682,851L1774,865L1778,738Z" fill="#88ca69" stroke="#88ca69" stroke-width="1.51"/><path d="M1673,388L1617,491L1807,423Z" fill="#b4d37f" stroke="#b4d37f" stroke-width="1.51"/><path d="M1652,-249L1666,-106L1759,-104Z" fill="#ab8242" stroke="#ab8242" stroke-width="1.51"/><path d="M1769,140L1676,270L1792,195Z" fill="#b4b25e" stroke="#b4b25e" stroke-width="1.51"/><path d="M1581,1005L1588,1142L1737,981Z" fill="#6bbe63" stroke="#6bbe63" stroke-width="1.51"/><path d="M1690,1331L1759,1308L1763,1183Z" fill="#389b51" stroke="#389b51" stroke-width="1.51"/><path d="M1645,126L1676,270L1769,140Z" fill="#b9b25e" stroke="#b9b25e" stroke-width="1.51"/><path d="M1682,851L1737,981L1774,865Z" fill="#7bc464" stroke="#7bc464" stroke-width="1.51"/><path d="M1687,663L1682,851L1778,738Z" fill="#96d071" stroke="#96d071" stroke-width="1.51"/><path d="M1588,1142L1690,1331L1763,1183Z" fill="#45a758" stroke="#45a758" stroke-width="1.51"/><path d="M1523,-72L1645,126L1666,-106Z" fill="#bf974d" stroke="#bf974d" stroke-width="1.51"/><path d="M1682,851L1581,1005L1737,981Z" fill="#7ac665" stroke="#7ac665" stroke-width="1.51"/><path d="M1652,-249L1503,-179L1666,-106Z" fill="#b08444" stroke="#b08444" stroke-width="1.51"/><path d="M1530,234L1673,388L1676,270Z" fill="#bfc86e" stroke="#bfc86e" stroke-width="1.51"/><path d="M1645,126L1530,234L1676,270Z" fill="#c2bc63" stroke="#c2bc63" stroke-width="1.51"/><path d="M1469,682L1521,881L1682,851Z" fill="#a1d76f" stroke="#a1d76f" stroke-width="1.51"/><path d="M1521,881L1581,1005L1682,851Z" fill="#8acc67" stroke="#8acc67" stroke-width="1.51"/><path d="M1617,491L1514,536L1687,663Z" fill="#bce28e" stroke="#bce28e" stroke-width="1.51"/><path d="M1514,536L1469,682L1687,663Z" fill="#bae185" stroke="#bae185" stroke-width="1.51"/><path d="M1469,682L1682,851L1687,663Z" fill="#a6d875" stroke="#a6d875" stroke-width="1.51"/><path d="M1588,1142L1439,1286L1690,1331Z" fill="#54a957" stroke="#54a957" stroke-width="1.51"/><path d="M1380,-260L1503,-179L1652,-249Z" fill="#b38445" stroke="#b38445" stroke-width="1.51"/><path d="M1530,234L1434,414L1673,388Z" fill="#c7d375" stroke="#c7d375" stroke-width="1.51"/><path d="M1523,-72L1434,80L1645,126Z" fill="#cba454" stroke="#cba454" stroke-width="1.51"/><path d="M1434,414L1617,491L1673,388Z" fill="#c3da81" stroke="#c3da81" stroke-width="1.51"/><path d="M1503,-179L1523,-72L1666,-106Z" fill="#bd8c44" stroke="#bd8c44" stroke-width="1.51"/><path d="M1434,80L1530,234L1645,126Z" fill="#cbb55e" stroke="#cbb55e" stroke-width="1.51"/><path d="M1006,-217L1161,-197L1380,-260Z" fill="#d39057" stroke="#d39057" stroke-width="1.51"/><path d="M1581,1005L1498,1023L1588,1142Z" fill="#74c264" stroke="#74c264" stroke-width="1.51"/><path d="M1434,414L1514,536L1617,491Z" fill="#c9e28a" stroke="#c9e28a" stroke-width="1.51"/><path d="M1521,881L1498,1023L1581,1005Z" fill="#88cb67" stroke="#88cb67" stroke-width="1.51"/><path d="M1498,1023L1455,1128L1588,1142Z" fill="#72bf62" stroke="#72bf62" stroke-width="1.51"/><path d="M1455,1128L1439,1286L1588,1142Z" fill="#65b75d" stroke="#65b75d" stroke-width="1.51"/><path d="M1334,587L1469,682L1514,536Z" fill="#cce98b" stroke="#cce98b" stroke-width="1.51"/><path d="M1469,682L1350,887L1521,881Z" fill="#aedc6f" stroke="#aedc6f" stroke-width="1.51"/><path d="M1378,983L1498,1023L1521,881Z" fill="#92d068" stroke="#92d068" stroke-width="1.51"/><path d="M1503,-179L1371,-64L1523,-72Z" fill="#c99247" stroke="#c99247" stroke-width="1.51"/><path d="M1371,-64L1434,80L1523,-72Z" fill="#d1a050" stroke="#d1a050" stroke-width="1.51"/><path d="M1434,80L1334,226L1530,234Z" fill="#d7c163" stroke="#d7c163" stroke-width="1.51"/><path d="M1334,226L1434,414L1530,234Z" fill="#d6d270" stroke="#d6d270" stroke-width="1.51"/><path d="M1334,226L1365,404L1434,414Z" fill="#dadc7b" stroke="#dadc7b" stroke-width="1.51"/><path d="M1350,887L1378,983L1521,881Z" fill="#a0d66a" stroke="#a0d66a" stroke-width="1.51"/><path d="M1334,587L1352,657L1469,682Z" fill="#cdea88" stroke="#cdea88" stroke-width="1.51"/><path d="M1434,414L1334,587L1514,536Z" fill="#d4ea91" stroke="#d4ea91" stroke-width="1.51"/><path d="M1352,657L1350,887L1469,682Z" fill="#c0e47a" stroke="#c0e47a" stroke-width="1.51"/><path d="M1378,983L1455,1128L1498,1023Z" fill="#85ca66" stroke="#85ca66" stroke-width="1.51"/><path d="M1380,-260L1371,-64L1503,-179Z" fill="#c58d47" stroke="#c58d47" stroke-width="1.51"/><path d="M1365,404L1334,587L1434,414Z" fill="#dae88e" stroke="#dae88e" stroke-width="1.51"/><path d="M1284,1236L1146,1345L1439,1286Z" fill="#75b260" stroke="#75b260" stroke-width="1.51"/><path d="M1338,1122L1284,1236L1439,1286Z" fill="#73ba62" stroke="#73ba62" stroke-width="1.51"/><path d="M1338,1122L1439,1286L1455,1128Z" fill="#72bc60" stroke="#72bc60" stroke-width="1.51"/><path d="M1378,983L1338,1122L1455,1128Z" fill="#86c867" stroke="#86c867" stroke-width="1.51"/><path d="M6,-250L141,-214L718,-254Z" fill="#d54e37" stroke="#d54e37" stroke-width="1.51"/><path d="M1227,797L1350,887L1352,657Z" fill="#c2e57c" stroke="#c2e57c" stroke-width="1.51"/><path d="M1294,127L1334,226L1434,80Z" fill="#debd65" stroke="#debd65" stroke-width="1.51"/><path d="M1371,-64L1294,127L1434,80Z" fill="#ddac5a" stroke="#ddac5a" stroke-width="1.51"/><path d="M1334,226L1178,289L1365,404Z" fill="#e4da7b" stroke="#e4da7b" stroke-width="1.51"/><path d="M1161,437L1334,587L1365,404Z" fill="#e3ed95" stroke="#e3ed95" stroke-width="1.51"/><path d="M1177,-16L1294,127L1371,-64Z" fill="#e4aa5e" stroke="#e4aa5e" stroke-width="1.51"/><path d="M1161,-197L1177,-16L1371,-64Z" fill="#e09d56" stroke="#e09d56" stroke-width="1.51"/><path d="M1140,947L1338,1122L1378,983Z" fill="#9bd471" stroke="#9bd471" stroke-width="1.51"/><path d="M1161,-197L1371,-64L1380,-260Z" fill="#d0914f" stroke="#d0914f" stroke-width="1.51"/><path d="M1350,887L1140,947L1378,983Z" fill="#a9da73" stroke="#a9da73" stroke-width="1.51"/><path d="M1140,947L1176,1158L1338,1122Z" fill="#99d173" stroke="#99d173" stroke-width="1.51"/><path d="M1177,719L1227,797L1352,657Z" fill="#d1eb85" stroke="#d1eb85" stroke-width="1.51"/><path d="M1178,289L1161,437L1365,404Z" fill="#e9e689" stroke="#e9e689" stroke-width="1.51"/><path d="M1161,437L1150,587L1334,587Z" fill="#ebf6a4" stroke="#ebf6a4" stroke-width="1.51"/><path d="M1334,587L1177,719L1352,657Z" fill="#d6ee8d" stroke="#d6ee8d" stroke-width="1.51"/><path d="M1227,797L1140,947L1350,887Z" fill="#bae278" stroke="#bae278" stroke-width="1.51"/><path d="M1294,127L1204,136L1334,226Z" fill="#e6c46c" stroke="#e6c46c" stroke-width="1.51"/><path d="M1150,587L1177,719L1334,587Z" fill="#e0f295" stroke="#e0f295" stroke-width="1.51"/><path d="M1176,1158L1284,1236L1338,1122Z" fill="#83c36a" stroke="#83c36a" stroke-width="1.51"/><path d="M1204,136L1178,289L1334,226Z" fill="#eace74" stroke="#eace74" stroke-width="1.51"/><path d="M1140,947L1090,1016L1176,1158Z" fill="#a6d87d" stroke="#a6d87d" stroke-width="1.51"/><path d="M1177,-16L1204,136L1294,127Z" fill="#ecb868" stroke="#ecb868" stroke-width="1.51"/><path d="M1176,1158L1146,1345L1284,1236Z" fill="#82bc69" stroke="#82bc69" stroke-width="1.51"/><path d="M896,1274L707,1303L1052,1320Z" fill="#91b876" stroke="#91b876" stroke-width="1.51"/><path d="M1067,1170L1146,1345L1176,1158Z" fill="#89c272" stroke="#89c272" stroke-width="1.51"/><path d="M1161,-197L1058,-116L1177,-16Z" fill="#e89d5e" stroke="#e89d5e" stroke-width="1.51"/><path d="M1038,190L1178,289L1204,136Z" fill="#f3d07c" stroke="#f3d07c" stroke-width="1.51"/><path d="M1177,719L1079,786L1227,797Z" fill="#d3ed89" stroke="#d3ed89" stroke-width="1.51"/><path d="M1079,786L1140,947L1227,797Z" fill="#c8e882" stroke="#c8e882" stroke-width="1.51"/><path d="M1067,1170L1052,1320L1146,1345Z" fill="#88bb72" stroke="#88bb72" stroke-width="1.51"/><path d="M1086,745L1079,786L1177,719Z" fill="#d9ef90" stroke="#d9ef90" stroke-width="1.51"/><path d="M1018,373L1161,437L1178,289Z" fill="#f3e993" stroke="#f3e993" stroke-width="1.51"/><path d="M1177,-16L988,75L1204,136Z" fill="#f3b870" stroke="#f3b870" stroke-width="1.51"/><path d="M988,75L1038,190L1204,136Z" fill="#f8c57c" stroke="#f8c57c" stroke-width="1.51"/><path d="M1008,568L1150,587L1161,437Z" fill="#f4f9ae" stroke="#f4f9ae" stroke-width="1.51"/><path d="M1090,1016L1067,1170L1176,1158Z" fill="#9bd07b" stroke="#9bd07b" stroke-width="1.51"/><path d="M1150,587L1086,745L1177,719Z" fill="#e1f296" stroke="#e1f296" stroke-width="1.51"/><path d="M1038,190L1018,373L1178,289Z" fill="#f7de8c" stroke="#f7de8c" stroke-width="1.51"/><path d="M1058,-116L988,75L1177,-16Z" fill="#f3ac6d" stroke="#f3ac6d" stroke-width="1.51"/><path d="M1008,568L1086,745L1150,587Z" fill="#ebf7a4" stroke="#ebf7a4" stroke-width="1.51"/><path d="M1018,373L1008,568L1161,437Z" fill="#f7f4a7" stroke="#f7f4a7" stroke-width="1.51"/><path d="M1006,-217L1058,-116L1161,-197Z" fill="#e39763" stroke="#e39763" stroke-width="1.51"/><path d="M1079,786L1090,1016L1140,947Z" fill="#bfe484" stroke="#bfe484" stroke-width="1.51"/><path d="M1079,786L922,784L1090,1016Z" fill="#cfea8e" stroke="#cfea8e" stroke-width="1.51"/><path d="M141,-214L486,-180L718,-254Z" fill="#dc6841" stroke="#dc6841" stroke-width="1.51"/><path d="M896,1274L1052,1320L1067,1170Z" fill="#91c27c" stroke="#91c27c" stroke-width="1.51"/><path d="M1008,568L867,693L1086,745Z" fill="#eef8a8" stroke="#eef8a8" stroke-width="1.51"/><path d="M867,693L922,784L1086,745Z" fill="#e7f5a2" stroke="#e7f5a2" stroke-width="1.51"/><path d="M866,1133L1067,1170L1090,1016Z" fill="#a5d587" stroke="#a5d587" stroke-width="1.51"/><path d="M875,991L866,1133L1090,1016Z" fill="#b3dc8e" stroke="#b3dc8e" stroke-width="1.51"/><path d="M922,784L875,991L1090,1016Z" fill="#c8e792" stroke="#c8e792" stroke-width="1.51"/><path d="M922,784L1079,786L1086,745Z" fill="#ddf097" stroke="#ddf097" stroke-width="1.51"/><path d="M859,-80L988,75L1058,-116Z" fill="#faab76" stroke="#faab76" stroke-width="1.51"/><path d="M868,401L1008,568L1018,373Z" fill="#fff6b0" stroke="#fff6b0" stroke-width="1.51"/><path d="M878,211L1018,373L1038,190Z" fill="#ffde94" stroke="#ffde94" stroke-width="1.51"/><path d="M920,-157L859,-80L1058,-116Z" fill="#f49f6d" stroke="#f49f6d" stroke-width="1.51"/><path d="M866,1133L896,1274L1067,1170Z" fill="#9bcc84" stroke="#9bcc84" stroke-width="1.51"/><path d="M1006,-217L920,-157L1058,-116Z" fill="#eb9b6b" stroke="#eb9b6b" stroke-width="1.51"/><path d="M988,75L927,97L1038,190Z" fill="#ffc584" stroke="#ffc584" stroke-width="1.51"/><path d="M718,-254L920,-157L1006,-217Z" fill="#e59266" stroke="#e59266" stroke-width="1.51"/><path d="M868,401L837,509L1008,568Z" fill="#fff7b1" stroke="#fff7b1" stroke-width="1.51"/><path d="M878,211L868,401L1018,373Z" fill="#ffe69b" stroke="#ffe69b" stroke-width="1.51"/><path d="M927,97L878,211L1038,190Z" fill="#ffcd8a" stroke="#ffcd8a" stroke-width="1.51"/><path d="M859,-80L927,97L988,75Z" fill="#ffb379" stroke="#ffb379" stroke-width="1.51"/><path d="M837,509L867,693L1008,568Z" fill="#faf9b1" stroke="#faf9b1" stroke-width="1.51"/><path d="M779,263L868,401L878,211Z" fill="#ffdb8d" stroke="#ffdb8d" stroke-width="1.51"/><path d="M718,-254L753,-116L920,-157Z" fill="#e9905e" stroke="#e9905e" stroke-width="1.51"/><path d="M766,865L875,991L922,784Z" fill="#d1e489" stroke="#d1e489" stroke-width="1.51"/><path d="M779,44L878,211L927,97Z" fill="#ffbf7c" stroke="#ffbf7c" stroke-width="1.51"/><path d="M859,-80L779,44L927,97Z" fill="#fdae72" stroke="#fdae72" stroke-width="1.51"/><path d="M867,693L766,865L922,784Z" fill="#e1eb92" stroke="#e1eb92" stroke-width="1.51"/><path d="M619,1276L340,1342L707,1303Z" fill="#959d56" stroke="#959d56" stroke-width="1.51"/><path d="M753,-116L859,-80L920,-157Z" fill="#f29963" stroke="#f29963" stroke-width="1.51"/><path d="M751,1093L866,1133L875,991Z" fill="#b0d280" stroke="#b0d280" stroke-width="1.51"/><path d="M866,1133L707,1303L896,1274Z" fill="#98bd74" stroke="#98bd74" stroke-width="1.51"/><path d="M717,487L639,586L837,509Z" fill="#ffefa4" stroke="#ffefa4" stroke-width="1.51"/><path d="M639,586L681,700L837,509Z" fill="#f9ed9c" stroke="#f9ed9c" stroke-width="1.51"/><path d="M751,1093L707,1303L866,1133Z" fill="#9fc374" stroke="#9fc374" stroke-width="1.51"/><path d="M837,509L681,700L867,693Z" fill="#f5f09e" stroke="#f5f09e" stroke-width="1.51"/><path d="M681,700L766,865L867,693Z" fill="#e5e88c" stroke="#e5e88c" stroke-width="1.51"/><path d="M779,263L705,392L868,401Z" fill="#ffe08f" stroke="#ffe08f" stroke-width="1.51"/><path d="M766,865L702,949L875,991Z" fill="#c8dc7f" stroke="#c8dc7f" stroke-width="1.51"/><path d="M779,44L779,263L878,211Z" fill="#ffc67c" stroke="#ffc67c" stroke-width="1.51"/><path d="M717,487L837,509L868,401Z" fill="#ffeea3" stroke="#ffeea3" stroke-width="1.51"/><path d="M702,949L751,1093L875,991Z" fill="#bbd57d" stroke="#bbd57d" stroke-width="1.51"/><path d="M753,-116L779,44L859,-80Z" fill="#f79f65" stroke="#f79f65" stroke-width="1.51"/><path d="M705,392L717,487L868,401Z" fill="#ffe898" stroke="#ffe898" stroke-width="1.51"/><path d="M617,216L779,263L779,44Z" fill="#fec173" stroke="#fec173" stroke-width="1.51"/><path d="M608,1140L619,1276L707,1303Z" fill="#9ab063" stroke="#9ab063" stroke-width="1.51"/><path d="M608,1140L707,1303L751,1093Z" fill="#a0bd6b" stroke="#a0bd6b" stroke-width="1.51"/><path d="M681,700L580,800L766,865Z" fill="#e0de7e" stroke="#e0de7e" stroke-width="1.51"/><path d="M617,216L705,392L779,263Z" fill="#fed17e" stroke="#fed17e" stroke-width="1.51"/><path d="M753,-116L581,-13L779,44Z" fill="#f79c5d" stroke="#f79c5d" stroke-width="1.51"/><path d="M581,-13L599,81L779,44Z" fill="#fba160" stroke="#fba160" stroke-width="1.51"/><path d="M599,81L617,216L779,44Z" fill="#fdb068" stroke="#fdb068" stroke-width="1.51"/><path d="M702,949L590,1020L751,1093Z" fill="#bacd74" stroke="#bacd74" stroke-width="1.51"/><path d="M718,-254L604,-178L753,-116Z" fill="#e68754" stroke="#e68754" stroke-width="1.51"/><path d="M580,800L702,949L766,865Z" fill="#d4d977" stroke="#d4d977" stroke-width="1.51"/><path d="M486,-180L604,-178L718,-254Z" fill="#e17c4c" stroke="#e17c4c" stroke-width="1.51"/><path d="M590,1020L608,1140L751,1093Z" fill="#b0c36e" stroke="#b0c36e" stroke-width="1.51"/><path d="M604,-178L581,-13L753,-116Z" fill="#f08b52" stroke="#f08b52" stroke-width="1.51"/><path d="M617,216L623,409L705,392Z" fill="#fed380" stroke="#fed380" stroke-width="1.51"/><path d="M705,392L623,409L717,487Z" fill="#ffe190" stroke="#ffe190" stroke-width="1.51"/><path d="M623,409L639,586L717,487Z" fill="#ffe598" stroke="#ffe598" stroke-width="1.51"/><path d="M580,800L590,1020L702,949Z" fill="#cbcf71" stroke="#cbcf71" stroke-width="1.51"/><path d="M639,586L586,691L681,700Z" fill="#f2e18b" stroke="#f2e18b" stroke-width="1.51"/><path d="M400,1268L340,1342L619,1276Z" fill="#98954f" stroke="#98954f" stroke-width="1.51"/><path d="M586,691L580,800L681,700Z" fill="#e9dc7f" stroke="#e9dc7f" stroke-width="1.51"/><path d="M141,-214L271,-155L486,-180Z" fill="#de5538" stroke="#de5538" stroke-width="1.51"/><path d="M580,800L436,990L590,1020Z" fill="#cac669" stroke="#cac669" stroke-width="1.51"/><path d="M486,-180L581,-13L604,-178Z" fill="#ed7e49" stroke="#ed7e49" stroke-width="1.51"/><path d="M481,401L453,501L623,409Z" fill="#ffd183" stroke="#ffd183" stroke-width="1.51"/><path d="M617,216L481,401L623,409Z" fill="#fecc79" stroke="#fecc79" stroke-width="1.51"/><path d="M623,409L453,501L639,586Z" fill="#ffdc91" stroke="#ffdc91" stroke-width="1.51"/><path d="M453,501L586,691L639,586Z" fill="#fadd8e" stroke="#fadd8e" stroke-width="1.51"/><path d="M486,-180L450,-49L581,-13Z" fill="#ef7e48" stroke="#ef7e48" stroke-width="1.51"/><path d="M453,501L415,650L586,691Z" fill="#f8d485" stroke="#f8d485" stroke-width="1.51"/><path d="M406,1123L400,1268L608,1140Z" fill="#a4a859" stroke="#a4a859" stroke-width="1.51"/><path d="M400,239L481,401L617,216Z" fill="#febc6c" stroke="#febc6c" stroke-width="1.51"/><path d="M599,81L436,73L617,216Z" fill="#fca55f" stroke="#fca55f" stroke-width="1.51"/><path d="M436,73L400,239L617,216Z" fill="#fda85e" stroke="#fda85e" stroke-width="1.51"/><path d="M608,1140L400,1268L619,1276Z" fill="#9da85c" stroke="#9da85c" stroke-width="1.51"/><path d="M590,1020L406,1123L608,1140Z" fill="#b0b863" stroke="#b0b863" stroke-width="1.51"/><path d="M404,792L436,990L580,800Z" fill="#d7c566" stroke="#d7c566" stroke-width="1.51"/><path d="M436,990L406,1123L590,1020Z" fill="#b9b761" stroke="#b9b761" stroke-width="1.51"/><path d="M581,-13L436,73L599,81Z" fill="#fa9557" stroke="#fa9557" stroke-width="1.51"/><path d="M404,792L580,800L586,691Z" fill="#e6d174" stroke="#e6d174" stroke-width="1.51"/><path d="M415,650L404,792L586,691Z" fill="#edcd74" stroke="#edcd74" stroke-width="1.51"/><path d="M450,-49L436,73L581,-13Z" fill="#f6894f" stroke="#f6894f" stroke-width="1.51"/><path d="M333,530L415,650L453,501Z" fill="#ffcb87" stroke="#ffcb87" stroke-width="1.51"/><path d="M400,239L261,410L481,401Z" fill="#fdb66c" stroke="#fdb66c" stroke-width="1.51"/><path d="M271,-155L450,-49L486,-180Z" fill="#e96a3e" stroke="#e96a3e" stroke-width="1.51"/><path d="M261,410L333,530L453,501Z" fill="#ffc17d" stroke="#ffc17d" stroke-width="1.51"/><path d="M261,410L453,501L481,401Z" fill="#ffc37a" stroke="#ffc37a" stroke-width="1.51"/><path d="M256,74L400,239L436,73Z" fill="#f99052" stroke="#f99052" stroke-width="1.51"/><path d="M404,792L264,841L436,990Z" fill="#d5b85e" stroke="#d5b85e" stroke-width="1.51"/><path d="M264,841L275,981L436,990Z" fill="#cbae59" stroke="#cbae59" stroke-width="1.51"/><path d="M243,-7L436,73L450,-49Z" fill="#f47a48" stroke="#f47a48" stroke-width="1.51"/><path d="M243,-7L256,74L436,73Z" fill="#f67847" stroke="#f67847" stroke-width="1.51"/><path d="M275,981L406,1123L436,990Z" fill="#bcac5b" stroke="#bcac5b" stroke-width="1.51"/><path d="M271,-155L243,-7L450,-49Z" fill="#ec663e" stroke="#ec663e" stroke-width="1.51"/><path d="M256,74L273,239L400,239Z" fill="#fa9353" stroke="#fa9353" stroke-width="1.51"/><path d="M273,239L261,410L400,239Z" fill="#fca561" stroke="#fca561" stroke-width="1.51"/><path d="M276,1131L400,1268L406,1123Z" fill="#a69c52" stroke="#a69c52" stroke-width="1.51"/><path d="M274,723L404,792L415,650Z" fill="#ecc06c" stroke="#ecc06c" stroke-width="1.51"/><path d="M275,981L276,1131L406,1123Z" fill="#b5a155" stroke="#b5a155" stroke-width="1.51"/><path d="M333,530L274,723L415,650Z" fill="#f6c177" stroke="#f6c177" stroke-width="1.51"/><path d="M274,723L264,841L404,792Z" fill="#e2b663" stroke="#e2b663" stroke-width="1.51"/><path d="M276,1131L340,1342L400,1268Z" fill="#9e8f4c" stroke="#9e8f4c" stroke-width="1.51"/><path d="M118,576L274,723L333,530Z" fill="#f8b574" stroke="#f8b574" stroke-width="1.51"/><path d="M276,1131L152,1339L340,1342Z" fill="#9b8344" stroke="#9b8344" stroke-width="1.51"/><path d="M261,410L118,576L333,530Z" fill="#ffb47a" stroke="#ffb47a" stroke-width="1.51"/><path d="M100,114L111,202L256,74Z" fill="#f27645" stroke="#f27645" stroke-width="1.51"/><path d="M152,405L118,576L261,410Z" fill="#fcab6f" stroke="#fcab6f" stroke-width="1.51"/><path d="M134,721L120,847L264,841Z" fill="#dca658" stroke="#dca658" stroke-width="1.51"/><path d="M164,-78L243,-7L271,-155Z" fill="#e85637" stroke="#e85637" stroke-width="1.51"/><path d="M256,74L111,202L273,239Z" fill="#f7854d" stroke="#f7854d" stroke-width="1.51"/><path d="M152,405L261,410L273,239Z" fill="#fca462" stroke="#fca462" stroke-width="1.51"/><path d="M111,202L152,405L273,239Z" fill="#f89457" stroke="#f89457" stroke-width="1.51"/><path d="M118,576L134,721L274,723Z" fill="#eeac66" stroke="#eeac66" stroke-width="1.51"/><path d="M134,721L264,841L274,723Z" fill="#e5ad5f" stroke="#e5ad5f" stroke-width="1.51"/><path d="M264,841L120,847L275,981Z" fill="#d2a554" stroke="#d2a554" stroke-width="1.51"/><path d="M120,847L111,994L275,981Z" fill="#c89d4f" stroke="#c89d4f" stroke-width="1.51"/><path d="M96,1180L152,1339L276,1131Z" fill="#9e8343" stroke="#9e8343" stroke-width="1.51"/><path d="M275,981L111,994L276,1131Z" fill="#bb9b51" stroke="#bb9b51" stroke-width="1.51"/><path d="M111,994L96,1180L276,1131Z" fill="#ae8e49" stroke="#ae8e49" stroke-width="1.51"/><path d="M141,-214L164,-78L271,-155Z" fill="#de4832" stroke="#de4832" stroke-width="1.51"/><path d="M243,-7L100,114L256,74Z" fill="#f26c42" stroke="#f26c42" stroke-width="1.51"/><path d="M164,-78L100,114L243,-7Z" fill="#ed5f3b" stroke="#ed5f3b" stroke-width="1.51"/><path d="M-18,1145L96,1180L111,994Z" fill="#a98543" stroke="#a98543" stroke-width="1.51"/><path d="M111,202L20,223L152,405Z" fill="#f38a51" stroke="#f38a51" stroke-width="1.51"/><path d="M20,223L16,428L152,405Z" fill="#f39358" stroke="#f39358" stroke-width="1.51"/><path d="M16,428L118,576L152,405Z" fill="#f8a36b" stroke="#f8a36b" stroke-width="1.51"/><path d="M96,1180L40,1339L152,1339Z" fill="#94713a" stroke="#94713a" stroke-width="1.51"/><path d="M141,-214L37,-39L164,-78Z" fill="#df432e" stroke="#df432e" stroke-width="1.51"/><path d="M37,-39L100,114L164,-78Z" fill="#e85536" stroke="#e85536" stroke-width="1.51"/><path d="M118,576L-35,710L134,721Z" fill="#e9a360" stroke="#e9a360" stroke-width="1.51"/><path d="M6,-250L37,-39L141,-214Z" fill="#d3342a" stroke="#d3342a" stroke-width="1.51"/><path d="M37,-39L-11,73L100,114Z" fill="#e85738" stroke="#e85738" stroke-width="1.51"/><path d="M-8,851L-36,951L111,994Z" fill="#c28f46" stroke="#c28f46" stroke-width="1.51"/><path d="M16,428L-35,535L118,576Z" fill="#f5a16d" stroke="#f5a16d" stroke-width="1.51"/><path d="M-8,851L111,994L120,847Z" fill="#ca964a" stroke="#ca964a" stroke-width="1.51"/><path d="M-8,851L120,847L134,721Z" fill="#d89d52" stroke="#d89d52" stroke-width="1.51"/><path d="M-35,710L-8,851L134,721Z" fill="#dc9a52" stroke="#dc9a52" stroke-width="1.51"/><path d="M-36,951L-18,1145L111,994Z" fill="#b38844" stroke="#b38844" stroke-width="1.51"/><path d="M100,114L20,223L111,202Z" fill="#f07845" stroke="#f07845" stroke-width="1.51"/><path d="M-35,535L-35,710L118,576Z" fill="#ee9f66" stroke="#ee9f66" stroke-width="1.51"/><path d="M-18,1145L40,1339L96,1180Z" fill="#98763b" stroke="#98763b" stroke-width="1.51"/><path d="M-11,73L20,223L100,114Z" fill="#ec6a3e" stroke="#ec6a3e" stroke-width="1.51"/><path d="M-36,951L-129,976L-18,1145Z" fill="#ac8343" stroke="#ac8343" stroke-width="1.51"/><path d="M-154,-229L-157,-76L6,-250Z" fill="#c22127" stroke="#c22127" stroke-width="1.51"/><path d="M-199,344L16,428L20,223Z" fill="#e98651" stroke="#e98651" stroke-width="1.51"/><path d="M-111,57L-11,73L37,-39Z" fill="#e24d33" stroke="#e24d33" stroke-width="1.51"/><path d="M6,-250L-157,-76L37,-39Z" fill="#d22d27" stroke="#d22d27" stroke-width="1.51"/><path d="M-18,1145L-119,1167L40,1339Z" fill="#937138" stroke="#937138" stroke-width="1.51"/><path d="M-119,1167L-142,1329L40,1339Z" fill="#896534" stroke="#896534" stroke-width="1.51"/><path d="M-157,-76L-111,57L37,-39Z" fill="#d8402f" stroke="#d8402f" stroke-width="1.51"/><path d="M-11,73L-111,57L20,223Z" fill="#e5603b" stroke="#e5603b" stroke-width="1.51"/><path d="M-111,57L-210,244L20,223Z" fill="#e0683f" stroke="#e0683f" stroke-width="1.51"/><path d="M-210,244L-199,344L20,223Z" fill="#e07749" stroke="#e07749" stroke-width="1.51"/><path d="M-160,539L-35,535L16,428Z" fill="#ed9869" stroke="#ed9869" stroke-width="1.51"/><path d="M-199,344L-160,539L16,428Z" fill="#e58f5f" stroke="#e58f5f" stroke-width="1.51"/><path d="M-160,539L-35,710L-35,535Z" fill="#e69966" stroke="#e69966" stroke-width="1.51"/><path d="M-129,976L-119,1167L-18,1145Z" fill="#9f7a3f" stroke="#9f7a3f" stroke-width="1.51"/><path d="M-35,710L-167,731L-8,851Z" fill="#d29250" stroke="#d29250" stroke-width="1.51"/><path d="M-160,539L-167,731L-35,710Z" fill="#da935c" stroke="#da935c" stroke-width="1.51"/><path d="M-129,976L-36,951L-8,851Z" fill="#bc8a45" stroke="#bc8a45" stroke-width="1.51"/><path d="M-221,830L-129,976L-8,851Z" fill="#bc8846" stroke="#bc8846" stroke-width="1.51"/><path d="M-167,731L-221,830L-8,851Z" fill="#c68c4c" stroke="#c68c4c" stroke-width="1.51"/><path d="M-129,976L-221,830L-119,1167Z" fill="#a77e44" stroke="#a77e44" stroke-width="1.51"/><path d="M-157,-76L-210,244L-111,57Z" fill="#d64e37" stroke="#d64e37" stroke-width="1.51"/><path d="M-221,830L-142,1329L-119,1167Z" fill="#95743f" stroke="#95743f" stroke-width="1.51"/><path d="M-221,830L-167,731L-160,539Z" fill="#cf8e57" stroke="#cf8e57" stroke-width="1.51"/><path d="M-210,244L-157,-76L-154,-229Z" fill="#ce392f" stroke="#ce392f" stroke-width="1.51"/><path d="M-199,344L-221,830L-160,539Z" fill="#dc9269" stroke="#dc9269" stroke-width="1.51"/><path d="M-210,244L-221,830L-199,344Z" fill="#dc8b63" stroke="#dc8b63" stroke-width="1.51"/></svg>