<svg xmlns="http://www.w3.org/2000/svg" viewBox="0 0 432 432"><title>soundcloud</title><rect x="36" y="36" width="360" height="360"/><path d="M75.37,244.2a30.92,30.92,0,0,0,11.15,23.74V220.47A30.89,30.89,0,0,0,75.37,244.2m22.94-30v59.95a32.67,32.67,0,0,0,8.75,1.2h3V213.17c-1-.09-2-.14-3.07-.14a32.35,32.35,0,0,0-8.73,1.2m26,3.89a28.15,28.15,0,0,0-2.47-1.43v58.69h11.79v-78.5a48.44,48.44,0,0,0-9.33,21.24m21.12-32.28v89.54h11.79V180a50.3,50.3,0,0,0-11.79,5.81m23.58-8.25v97.78h11.8V178a50.45,50.45,0,0,0-7.44-.55c-1.48,0-2.93.07-4.36.19m30.09,6.9a50.33,50.33,0,0,0-12.4-5.29v96.17h17.69v-98a60.53,60.53,0,0,0-5.29,7.09m11.19-13V275.38h112v-.14c23.59-1.51,34.23-16.15,34.23-34,0-18.86-14.26-34.14-33.45-34.14a32.1,32.1,0,0,0-13.26,2.86,60.32,60.32,0,0,0-99.56-38.47" style="fill:#fff"/></svg>