<svg xmlns="http://www.w3.org/2000/svg" viewBox="0 0 432 432"><title>twitter</title><path d="M241,145.7c-15.71,5.72-25.64,20.47-24.52,36.61l.38,6.23-6.29-.76c-22.88-2.92-42.87-12.83-59.84-29.49l-8.3-8.26-2.14,6.1c-4.52,13.6-1.63,28,7.79,37.63,5,5.34,3.89,6.1-4.78,2.92-3-1-5.66-1.78-5.91-1.4-.88.89,2.14,12.46,4.52,17,3.27,6.36,9.93,12.58,17.23,16.27l6.16,2.92-7.29.13c-7,0-7.29.13-6.53,2.8,2.51,8.26,12.44,17,23.51,20.85l7.79,2.66L176,262a70.51,70.51,0,0,1-33.7,9.4c-5.66.13-10.31.64-10.31,1,0,1.27,15.34,8.38,24.26,11.18,26.78,8.26,58.59,4.7,82.48-9.41,17-10,33.94-30,41.87-49.33,4.28-10.29,8.55-29.11,8.55-38.12,0-5.85.38-6.61,7.42-13.6a82.87,82.87,0,0,0,8.8-9.79c1.26-2.42,1.13-2.42-5.28-.26-10.69,3.82-12.2,3.31-6.91-2.41,3.89-4.07,8.55-11.44,8.55-13.6,0-.38-1.88.25-4,1.4a69.5,69.5,0,0,1-11.06,4.32L279.86,155l-6.16-4.2A51.1,51.1,0,0,0,263,145.19C256.6,143.41,246.79,143.66,241,145.7ZM36,36H396V396H36Z" style="fill:#010101"/></svg>