<svg xmlns="http://www.w3.org/2000/svg" viewBox="0 0 432 432"><title>youtube</title><rect x="36" y="36" width="360" height="360"/><path d="M127.48,211.87l84.45-85a54.05,54.05,0,0,1,76.76,0,13.92,13.92,0,0,1-.38,19.24,13.51,13.51,0,0,1-19.2,0l-1.28-1.49a27,27,0,0,0-36.71,1.55l-86.35,86.85A14,14,0,0,1,125.2,233a13.7,13.7,0,0,1,0-19.3,13.91,13.91,0,0,1,2.28-1.84Zm189.61,1.85a13.51,13.51,0,0,0-19.19,0,14.44,14.44,0,0,0-1.85,2.3l-84.11,84.61a27,27,0,0,1-38.38,0l-.38-.06a13.51,13.51,0,0,0-19.19,0,13.71,13.71,0,0,0,0,19.29,14.71,14.71,0,0,0,2.16,1.79,54.07,54.07,0,0,0,75-1.73l86-86.91a13.72,13.72,0,0,0,0-19.3ZM185,269.77a14.28,14.28,0,0,0-2.28,1.85,13.69,13.69,0,0,0,0,19.29,14,14,0,0,0,19.57.07l86.35-86.87a27,27,0,0,1,38.37,0,27.39,27.39,0,0,1,0,38.61l-81.88,82.75a27,27,0,0,0,38.38,0L346.26,262a54.84,54.84,0,0,0,0-77.21,54.08,54.08,0,0,0-76.76,0l-84.46,85ZM173.55,262l86-86.91a13.7,13.7,0,0,0,0-19.3,13.5,13.5,0,0,0-19.19,0,12.93,12.93,0,0,0-1.84,2.3l-84.12,84.62a27,27,0,0,1-38.37,0,27.4,27.4,0,0,1,0-38.61l81.88-82.74a27,27,0,0,0-38.38,0L96.8,184.81a54.83,54.83,0,0,0,0,77.21,54,54,0,0,0,76.75,0Z"/><path d="M297.06,281.1H281.63l.07-9a7.28,7.28,0,0,1,7.27-7.24h1a7.29,7.29,0,0,1,7.29,7.24Zm-57.9-19.21c-3.92,0-7.12,2.63-7.12,5.85v43.6c0,3.22,3.2,5.84,7.12,5.84s7.14-2.63,7.14-5.84v-43.6C246.3,264.52,243.1,261.89,239.17,261.89Zm94-24.39v82.95c0,19.9-17.26,36.18-38.34,36.18H137.16c-21.1,0-38.35-16.28-38.35-36.18V237.5c0-19.9,17.25-36.18,38.35-36.18H294.84c21.09,0,38.34,16.28,38.34,36.18Zm-185.51,92V242.07h19.55V229.13l-52.11-.08v12.73l16.27,0v87.62h16.29Zm58.59-74.36H190v46.66c0,6.75.41,10.12,0,11.32-1.33,3.62-7.28,7.46-9.6.39-.39-1.24,0-5-.05-11.38l-.07-47H164l0,46.24c0,7.09-.16,12.38.06,14.78.4,4.24.26,9.19,4.19,12,7.33,5.28,21.38-.79,24.9-8.34l0,9.63,13.09,0V255.09Zm52.13,53.43,0-38.83c0-14.8-11.08-23.67-26.12-11.69l.07-28.87-16.28,0L216,328.81l13.38-.2,1.22-6.21c17.11,15.7,27.87,4.94,27.84-13.88Zm51-5.15-12.22.07c0,.48,0,1,0,1.65v6.82a6.67,6.67,0,0,1-6.68,6.62h-2.39a6.67,6.67,0,0,1-6.68-6.62V294h28V283.45c0-7.7-.2-15.39-.83-19.79-2-13.92-21.54-16.13-31.41-9a18.38,18.38,0,0,0-6.84,9.21q-2.09,6-2.08,16.42v23.15c0,38.49,46.76,33.05,41.18-.06ZM246.73,177.66a11.09,11.09,0,0,0,3.92,4.95,11.36,11.36,0,0,0,6.67,1.85,10.37,10.37,0,0,0,6.24-1.94,14.94,14.94,0,0,0,4.57-5.85l-.31,6.39H286V105.81h-14.3v60.13a6,6,0,0,1-11.91,0V105.81H244.85v52.11c0,6.64.12,11.06.32,13.31a22.61,22.61,0,0,0,1.56,6.44ZM191.68,134q0-11.12,1.85-17.38a19.39,19.39,0,0,1,6.68-10q4.81-3.8,12.32-3.8a22.55,22.55,0,0,1,10.81,2.44,18,18,0,0,1,7,6.34,25,25,0,0,1,3.36,8,64.15,64.15,0,0,1,.91,12.65v19.54a106.31,106.31,0,0,1-.84,15.78,25.06,25.06,0,0,1-3.58,9.39,17,17,0,0,1-7,6.43,22.31,22.31,0,0,1-9.86,2.07,27.37,27.37,0,0,1-10.5-1.77,14.42,14.42,0,0,1-6.7-5.36,23.78,23.78,0,0,1-3.41-8.66,83.48,83.48,0,0,1-1-15.23V134Zm14.23,30.69c0,4.37,3.26,7.95,7.22,7.95s7.21-3.57,7.21-7.95V123.59c0-4.37-3.24-7.94-7.21-7.94s-7.22,3.57-7.22,7.94v41.13Zm-50.27,20.77h17.14l0-59.25L193,75.48H174.31l-10.77,37.7-10.92-37.8H134.07l21.54,50.89,0,59.22Z" style="fill:#fff"/></svg>