<?xml version="1.0" encoding="utf-8"?>
<!-- Generator: Adobe Illustrator 21.0.2, SVG Export Plug-In . SVG Version: 6.00 Build 0)  -->
<svg version="1.1" id="Layer_1" xmlns="http://www.w3.org/2000/svg" xmlns:xlink="http://www.w3.org/1999/xlink" x="0px" y="0px"
	 viewBox="0 0 432 432" style="enable-background:new 0 0 432 432;" xml:space="preserve">
<style type="text/css">
	.st0{fill:#261300;}
	.st1{fill:#FF7F18;}
</style>
<g>
	<g>
		<path class="st0" d="M216,385.9c-93.6,0-169.9-76.3-169.9-169.9S122.4,46.1,216,46.1S385.9,122.4,385.9,216S309.6,385.9,216,385.9
			z"/>
		<path class="st1" d="M216,56.5c87.8,0,159.5,71.6,159.5,159.5S303.8,375.5,216,375.5S56.5,303.8,56.5,216S128.2,56.5,216,56.5
			 M216,36c-99.4,0-180,80.6-180,180s80.6,180,180,180s180-80.6,180-180S315.4,36,216,36L216,36z"/>
	</g>
	<path class="st1" d="M265,182.5c0-1.1,0.4-1.4,1.4-1.4h20.5c1.1,0,1.4,0.4,1.4,1.4v104c0,1.1-0.4,1.4-1.4,1.4h-20.5
		c-1.4,0-1.8-0.7-1.8-1.8L265,182.5L265,182.5L265,182.5z M263.5,152.6c0-8.3,5.8-13.3,13.3-13.3c7.9,0,13.3,5.4,13.3,13.3
		c0,8.6-5.8,13.3-13.7,13.3C268.9,166,263.5,161.3,263.5,152.6z M204.1,225.7c-3.6-14.8-12.2-46.4-15.8-61.9h-0.4
		c-2.9,15.5-9.7,41.4-15.1,61.9H204.1z M167.8,247.3l-10.4,39.6c-0.4,1.1-0.7,1.4-1.8,1.4h-19.4c-1.4,0-1.4-0.4-1.4-1.8l37.4-130.7
		c0.7-2.5,1.1-4.3,1.4-10.8c0-1.1,0.4-1.4,1.1-1.4h27.7c1.1,0,1.4,0.4,1.4,1.4l41.8,142.2c0.4,1.1,0,1.8-1.1,1.8h-22
		c-1.1,0-1.8-0.4-1.8-1.1l-10.8-39.6h-42.1V247.3z"/>
</g>
</svg>
