<?xml version="1.0" encoding="utf-8"?>
<!-- Generator: Adobe Illustrator 21.0.2, SVG Export Plug-In . SVG Version: 6.00 Build 0)  -->
<svg version="1.1" id="Layer_1" xmlns="http://www.w3.org/2000/svg" xmlns:xlink="http://www.w3.org/1999/xlink" x="0px" y="0px"
	 viewBox="0 0 432 432" style="enable-background:new 0 0 432 432;" xml:space="preserve">
<g id="Git">
	<path d="M231.3,42.8c-8.9-8.5-22.9-8.5-31.8,0l-30,30c-2.9,2.9-3,7.7,0,10.6c0,0,0,0,0,0l27,27.9c2.1,2.1,5.3,2.8,8.1,1.7
		c15.5-6,32.8,1.7,38.8,17.2c1.4,3.6,2.1,7.3,2,11.2c0,3.8-0.8,7.6-2.3,11.1c-1.1,2.8-0.5,6,1.7,8.1l26.4,25.8
		c2.1,2.1,5.3,2.8,8.1,1.7c15.4-6.1,32.8,1.4,39,16.8c6.1,15.4-1.4,32.8-16.8,39c-15.4,6.1-32.8-1.4-39-16.8
		c-1.3-3.4-2.1-7-2.1-10.6c0-3.6,0.8-7.3,2.1-10.7c1.1-2.7,0.4-5.9-1.7-8l-25.2-25.4c-3-2.9-7.7-2.9-10.6,0.1
		c-1.3,1.4-2.1,3.2-2.1,5.1v79.2c0,3,1.8,5.7,4.5,6.9c15.2,6.6,22.1,24.3,15.5,39.5c-6.6,15.2-24.3,22.1-39.5,15.5
		s-22.1-24.3-15.5-39.5c3-6.9,8.6-12.5,15.5-15.5c2.7-1.2,4.5-3.9,4.5-6.9v-81.3c0-3-1.8-5.7-4.5-6.9c-14.7-6.5-21.8-23.4-15.9-38.4
		c0.9-2.8,0.1-6-2.1-8l-27.2-27.8c-2.9-2.9-7.7-3-10.6,0c0,0,0,0,0,0l-105,105c-8.8,8.8-8.8,23,0,31.8L200.1,389
		c8.8,8.8,23,8.8,31.8,0l157.5-157.7c8.8-8.8,8.8-23,0-31.8"/>
</g>
</svg>
