<?xml version="1.0" encoding="utf-8"?>
<!-- Generator: Adobe Illustrator 21.0.2, SVG Export Plug-In . SVG Version: 6.00 Build 0)  -->
<svg version="1.1" id="Layer_1" xmlns="http://www.w3.org/2000/svg" xmlns:xlink="http://www.w3.org/1999/xlink" x="0px" y="0px"
	 viewBox="0 0 432 432" style="enable-background:new 0 0 432 432;" xml:space="preserve">
<style type="text/css">
	.st0{fill:#9CDAF0;}
	.st1{fill:#201F1F;}
</style>
<g>
	<g>
		<g>
			<circle class="st0" cx="216" cy="216" r="180"/>
		</g>
	</g>
	<g>
		<g>
			<path class="st1" d="M234,260.3c22.3-2.5,46.4-10.8,46.4-49.7c0-11.2-4-20.2-10.1-27c1.1-2.5,4.3-12.6-1.1-26.6
				c0,0-8.3-2.5-27.4,10.1c-8.3-2.2-17.3-3.6-25.6-3.6c-8.6,0-17.6,1.4-25.6,3.6c-19.4-13-27.7-10.1-27.7-10.1
				c-5.4,14-2.2,23.8-1.1,26.6c-6.5,6.8-10.1,15.8-10.1,27c0,38.9,23.8,46.8,46.4,49.7c-2.9,2.5-5.4,7.2-6.5,13.7
				c-5.8,2.5-20.5,7.2-29.5-8.3c0,0-5.4-9.7-15.5-10.1c0,0-10.1-0.4-0.7,6.1c0,0,6.8,3.2,11.2,14.8c0,0,6.1,19.4,34.2,13.3v17.3
				c0,2.5-2.2,5.8-7.2,5c-40.3-13.7-69.1-51.8-69.1-96.1c0-55.8,45-100.8,100.8-100.8c55.4,0,100.8,45,100.8,100.8
				c0,44.6-28.8,82.1-68.8,95.8c-5,1.1-7.2-2.2-7.2-5v-28.1C240.8,269.3,237.6,263.2,234,260.3L234,260.3z M331.2,216
				c0-63.7-51.5-115.2-115.2-115.2S100.8,152.3,100.8,216c0,63.4,51.5,115.2,115.2,115.2S331.2,279.7,331.2,216L331.2,216z"/>
		</g>
	</g>
</g>
</svg>
