<?xml version="1.0" encoding="utf-8"?>
<!-- Generator: Adobe Illustrator 21.0.2, SVG Export Plug-In . SVG Version: 6.00 Build 0)  -->
<svg version="1.1" id="Layer_1" xmlns="http://www.w3.org/2000/svg" xmlns:xlink="http://www.w3.org/1999/xlink" x="0px" y="0px"
	 viewBox="0 0 432 432" style="enable-background:new 0 0 432 432;" xml:space="preserve">
<style type="text/css">
	.st0{fill:#0769AD;}
	.st1{fill:#78CFF5;}
</style>
<g>
	<g>
		<g>
			<circle class="st0" cx="216" cy="216" r="180"/>
		</g>
	</g>
	<g id="Layer_6">
		<g>
			<g>
				<path class="st1" d="M118.1,165.2c-18.7,27-16.6,62.3-2.2,91.1c0.4,0.7,0.7,1.4,1.1,2.2c0.4,0.4,0.4,0.7,0.7,1.4
					c0,0.4,0.4,0.4,0.4,0.7c0.4,0.4,0.4,0.7,0.7,1.4c0.4,0.7,1.1,1.4,1.4,2.5c0.4,0.4,0.4,0.7,0.7,1.4c0.4,0.7,1.1,1.8,1.4,2.5
					c0.4,0.4,0.4,0.7,0.7,1.1c0.7,1.1,1.4,2.2,2.2,3.2l0,0l0.4,0.4c0.7,1.1,1.4,1.8,2.2,2.9c0.4,0.4,0.4,0.7,0.7,1.1
					c0.7,0.7,1.4,1.4,1.8,2.5c0.4,0.4,0.4,0.7,0.7,0.7c0.7,1.1,1.8,2.2,2.9,3.2l0,0l0,0c1.1,1.1,1.8,1.8,2.9,2.9
					c0.4,0.4,0.7,0.7,0.7,0.7c0.7,0.7,1.4,1.4,2.2,2.2c0.4,0.4,0.7,0.7,1.1,0.7c1.1,1.1,2.2,1.8,2.9,2.9l0,0l0.4,0.4
					c1.1,0.7,1.8,1.4,2.9,2.2c0.4,0.4,0.7,0.7,1.1,1.1c0.7,0.7,1.4,1.1,2.2,1.8c0.4,0.4,0.7,0.7,1.1,1.1c0.7,0.7,1.8,1.1,2.5,1.8
					c0.4,0.4,0.7,0.4,1.1,0.7c0,0,0,0,0.4,0.4c0.7,0.7,1.8,1.1,2.5,1.8c0.4,0.4,0.7,0.4,1.1,0.7c1.4,0.7,2.5,1.4,4,2.5
					c0.4,0.4,0.7,0.4,1.1,0.7c1.1,0.7,1.8,1.1,2.9,1.8c0.4,0.4,1.1,0.7,1.4,0.7c0.7,0.4,1.4,0.7,2.2,1.1c0,0,0.4,0,0.4,0.4
					c0.4,0,0.7,0.4,0.7,0.4c1.1,0.4,2.2,1.1,3.2,1.4c0.4,0,0.4,0.4,0.7,0.4c1.4,0.7,2.5,1.1,4,1.4c0.4,0,0.7,0.4,1.1,0.4
					c1.1,0.4,2.5,1.1,3.6,1.4h0.4c1.4,0.4,2.9,1.1,4,1.4c0.4,0,0.7,0.4,1.1,0.4c1.4,0.4,2.9,1.1,4.3,1.1
					c91.1,16.6,117.7-54.7,117.7-54.7c-22.3,29.2-61.9,36.7-99,28.1c-1.4-0.4-2.9-0.7-4.3-1.1c-0.4,0-0.7-0.4-1.1-0.4
					c-1.4-0.4-2.5-0.7-4-1.4c-0.4,0-0.4,0-0.7-0.4c-1.1-0.4-2.5-0.7-3.6-1.4c-0.4,0-0.7-0.4-1.1-0.4c-1.4-0.4-2.5-1.1-4-1.4
					c-0.4,0-0.4-0.4-0.7-0.4c-1.1-0.4-2.2-1.1-3.2-1.4c-0.4,0-0.7-0.4-1.1-0.4c-0.7-0.4-1.8-0.7-2.5-1.4c-0.7-0.4-1.1-0.7-1.8-0.7
					c-1.1-0.7-2.2-1.1-2.9-1.8c-0.4-0.4-0.7-0.4-1.1-0.7c-1.4-0.7-2.5-1.4-4-2.5c-0.4-0.4-0.7-0.4-1.1-0.7c-1.1-0.7-1.8-1.1-2.9-1.8
					c-0.4-0.4-0.7-0.4-0.7-0.7c-0.7-0.7-1.8-1.1-2.5-1.8c-0.4-0.4-0.7-0.7-1.1-0.7c-0.7-0.7-1.4-1.1-2.5-1.8
					c-0.4-0.4-0.7-0.7-1.1-0.7c-1.1-0.7-1.8-1.8-2.9-2.5c0,0-0.4,0-0.4-0.4c-1.1-1.1-2.2-1.8-3.2-2.9c-0.4-0.4-0.7-0.7-0.7-0.7
					c-0.7-0.7-1.4-1.4-2.2-2.2c-0.4-0.4-0.7-0.7-0.7-0.7c-1.1-1.1-1.8-1.8-2.9-2.9l0,0c-1.1-1.1-1.8-2.2-2.9-3.2
					c-0.4-0.4-0.4-0.7-0.7-0.7c-0.7-0.7-1.4-1.8-2.2-2.5c-0.4-0.4-0.4-0.7-0.7-1.1c-0.7-1.1-1.4-2.2-2.2-3.2
					c-20.9-28.4-28.1-67.3-11.5-99.4"/>
				<path class="st1" d="M176.4,142.2c-13.7,19.8-13,45.7-2.2,66.6c1.8,3.6,4,6.8,6.1,10.1c2.2,2.9,4.3,6.5,6.8,8.6
					c1.1,1.1,2.2,2.2,3.2,3.2c0.4,0.4,0.4,0.4,0.7,0.7c1.1,1.1,2.2,1.8,3.2,2.9l0,0l0,0c1.1,1.1,2.5,2.2,3.6,2.9
					c0.4,0.4,0.7,0.4,0.7,0.7c1.1,1.1,2.5,1.8,4,2.9l0,0c0.7,0.4,1.1,0.7,1.8,1.1c0.4,0.4,0.7,0.4,0.7,0.7c1.1,0.7,1.8,1.1,2.9,1.8
					c0,0,0.4,0,0.4,0.4c0.7,0.4,1.8,1.1,2.5,1.4c0.4,0,0.7,0.4,0.7,0.4c0.7,0.4,1.1,0.7,1.8,1.1c0,0,0,0,0.4,0
					c1.1,0.7,2.5,1.1,3.6,1.8c0.4,0,0.4,0.4,0.7,0.4c1.1,0.4,2.2,0.7,2.9,1.1c0.4,0,0.7,0.4,1.4,0.4c1.1,0.4,1.8,0.7,2.9,1.1
					c0.4,0,0.7,0.4,1.1,0.4c1.4,0.4,2.5,1.1,4,1.1c70.6,11.5,86.8-42.5,86.8-42.5c-14.8,21.2-43.2,31.3-73.4,23.4
					c-1.4-0.4-2.5-0.7-4-1.1c-0.4,0-0.7-0.4-1.1-0.4c-1.1-0.4-1.8-0.7-2.9-1.1c-0.4,0-0.7-0.4-1.1-0.4c-1.1-0.4-2.2-0.7-2.9-1.1
					c-0.4,0-0.7-0.4-0.7-0.4c-1.1-0.7-2.5-1.1-3.6-1.8c-0.7-0.4-1.1-0.7-1.8-1.1c-0.4-0.4-0.7-0.4-1.1-0.7c-0.7-0.4-1.4-0.7-2.2-1.4
					c-0.4,0-0.4-0.4-0.7-0.4c-1.1-0.7-1.8-1.1-2.9-1.8c-0.4-0.4-0.7-0.4-0.7-0.7c-0.7-0.4-1.1-0.7-1.8-1.1c-1.4-0.7-2.5-1.8-4-2.9
					c-0.4-0.4-0.7-0.4-0.7-0.7c-13.3-10.4-23.8-24.8-28.8-41c-5.4-16.9-4-35.6,5-51.1"/>
				<path class="st1" d="M225.7,125.3c-7.9,11.9-9,26.6-3.2,39.6c5.8,14,18,24.8,32,29.9c0.7,0.4,1.1,0.4,1.8,0.7
					c0.4,0,0.4,0,0.7,0.4c0.7,0.4,1.8,0.7,2.5,0.7c38.9,7.6,49.3-19.8,52.2-24.1c-9.4,13.3-24.8,16.6-43.9,11.9
					c-1.4-0.4-3.2-1.1-4.7-1.4c-1.8-0.7-3.6-1.4-5.4-2.2c-3.2-1.8-6.5-3.6-9.7-5.8c-16.9-13-27.7-37.4-16.6-57.6"/>
			</g>
		</g>
	</g>
</g>
</svg>
