<?xml version="1.0" encoding="utf-8"?>
<!-- Generator: Adobe Illustrator 21.0.2, SVG Export Plug-In . SVG Version: 6.00 Build 0)  -->
<svg version="1.1" id="Layer_1" xmlns="http://www.w3.org/2000/svg" xmlns:xlink="http://www.w3.org/1999/xlink" x="0px" y="0px"
	 viewBox="0 0 432 432" style="enable-background:new 0 0 432 432;" xml:space="preserve">
<style type="text/css">
	.st0{fill:#F0DB4F;}
	.st1{fill:#323330;}
</style>
<g>
	<g>
		<g>
			<circle class="st0" cx="216" cy="216" r="180"/>
		</g>
	</g>
	<g id="Layer_1_1_">
		<g>
			<g>
				<path class="st1" d="M159.8,146.2h31.3v88.2c0,39.6-19.1,53.6-49.3,53.6c-7.6,0-16.9-1.1-23-3.2l3.6-25.6
					c4.3,1.4,10.1,2.5,16.2,2.5c13.3,0,21.6-6.1,21.6-27.4L159.8,146.2L159.8,146.2z"/>
				<path class="st1" d="M218.9,253.4c8.3,4.3,21.6,8.6,34.9,8.6c14.4,0,22-6.1,22-15.5c0-8.6-6.5-13.7-23.4-19.4
					c-23-8.3-38.5-21.2-38.5-41.8c0-23.4,20.2-41.4,52.9-41.4c15.8,0,27.4,3.2,35.6,7.2l-7.2,25.2c-5.4-2.5-15.5-6.5-28.8-6.5
					c-13.7,0-20.2,6.5-20.2,13.3c0,9,7.6,13,25.9,19.8c24.5,9,36,22,36,41.8c0,23.4-17.6,43.2-56.2,43.2c-15.8,0-31.7-4.3-39.6-8.6
					L218.9,253.4z"/>
			</g>
		</g>
	</g>
</g>
</svg>
