<?xml version="1.0" encoding="utf-8"?>
<!-- Generator: Adobe Illustrator 21.0.2, SVG Export Plug-In . SVG Version: 6.00 Build 0)  -->
<svg version="1.1" id="Layer_1" xmlns="http://www.w3.org/2000/svg" xmlns:xlink="http://www.w3.org/1999/xlink" x="0px" y="0px"
	 viewBox="0 0 432 432" style="enable-background:new 0 0 432 432;" xml:space="preserve">
<style type="text/css">
	.st0{fill:#0D2531;}
	.st1{fill:#AAD1EB;}
</style>
<g>
	<g>
		<path class="st0" d="M216,385.9c-93.6,0-169.9-76.3-169.9-169.9S122.4,46.1,216,46.1S385.9,122.4,385.9,216S309.6,385.9,216,385.9
			z"/>
		<path class="st1" d="M216,56.5c87.8,0,159.5,71.6,159.5,159.5S303.8,375.5,216,375.5S56.5,303.8,56.5,216S128.2,56.5,216,56.5
			 M216,36c-99.4,0-180,80.6-180,180s80.6,180,180,180s180-80.6,180-180S315.4,36,216,36L216,36z"/>
	</g>
	<g>
		<path class="st1" d="M247.3,203.4c0-1.4,0-5.4-0.7-12.6c0-1.1,0.4-1.4,1.1-1.8c7.9-3.2,27-9,47.9-9c1.1,0,1.4,0.4,1.4,1.4v18.7
			c0,1.1-0.4,1.4-1.4,1.4c-8.3-0.4-20.5,0.7-24.8,2.5v82.4c0,1.1-0.4,1.4-1.4,1.4h-20.5c-1.1,0-1.4-0.4-1.4-1.4L247.3,203.4
			L247.3,203.4L247.3,203.4L247.3,203.4z M150.8,288c-1.4,0-1.8-0.7-1.8-1.8V145.8c0-1.1,0.4-1.8,1.4-1.8H171c1.1,0,1.4,0.4,1.4,1.4
			v121h53.6c1.1,0,1.4,0.4,1.1,1.4l-3.2,18.4c0,1.4-0.7,1.8-1.8,1.8H150.8L150.8,288z"/>
	</g>
</g>
</svg>
