<?xml version="1.0" encoding="utf-8"?>
<!-- Generator: Adobe Illustrator 21.0.2, SVG Export Plug-In . SVG Version: 6.00 Build 0)  -->
<svg version="1.1" id="Layer_1" xmlns="http://www.w3.org/2000/svg" xmlns:xlink="http://www.w3.org/1999/xlink" x="0px" y="0px"
	 viewBox="0 0 432 432" style="enable-background:new 0 0 432 432;" xml:space="preserve">
<style type="text/css">
	.st0{fill:#46483E;}
	.st1{fill:#81CF08;}
</style>
<g>
	<path class="st0" d="M216,36c-99.4,0-180,80.6-180,180s80.6,180,180,180s180-80.6,180-180S315.4,36,216,36z"/>
	<g>
		<path class="st1" d="M216,330.8c-3.2,0-6.1-0.7-9-2.5l-28.1-16.6c-4.3-2.5-2.2-3.2-0.7-3.6c5.8-2.2,6.8-2.5,12.6-5.8
			c0.7-0.4,1.4-0.4,2.2,0.4l21.6,13c0.7,0.4,1.8,0.4,2.5,0l84.2-48.6c0.7-0.4,1.4-1.4,1.4-2.2v-97.2c0-1.1-0.4-1.8-1.4-2.2l-83.9-49
			c-0.7-0.4-1.8-0.4-2.5,0l-84.2,48.2c-0.7,0.4-1.4,1.4-1.4,2.2v97.2c0,0.7,0.4,1.8,1.4,2.2l23,13.3c12.6,6.1,20.2-1.1,20.2-8.6
			v-95.4c0-1.4,1.1-2.5,2.5-2.5h10.8c1.4,0,2.5,1.1,2.5,2.5v95.8c0,16.9-9,26.3-24.8,26.3c-5,0-8.6,0-19.4-5.4l-22-12.6
			c-5.4-3.2-9-9-9-15.5V167c0-6.1,3.2-12.2,9-15.5l84.2-48.6c5.4-2.9,12.6-2.9,17.6,0l84.2,48.6c5.4,3.2,9,9,9,15.5v97.2
			c0,6.1-3.2,12.2-9,15.5l-84.6,49C222.1,330.1,219.2,330.8,216,330.8z"/>
		<path class="st1" d="M242.3,263.9c-36.7,0-44.6-16.9-44.6-31c0-1.4,1.1-2.5,2.5-2.5H211c1.1,0,2.2,0.7,2.5,2.2
			c1.4,11.2,6.5,16.6,28.8,16.6c17.6,0,25.2-4,25.2-13.3c0-5.4-2.2-9.4-29.9-12.2c-23-2.2-37.4-7.2-37.4-25.9
			c0-16.9,14.4-27,38.5-27c27,0,40.3,9.4,42.1,29.5c0,0.7-0.4,1.4-0.7,1.8s-1.1,0.7-1.8,0.7h-10.8c-1.1,0-2.2-0.7-2.5-1.8
			c-2.5-11.5-9-15.5-26.3-15.5c-19.4,0-21.6,6.8-21.6,11.9c0,6.1,2.5,7.9,28.8,11.5c25.9,3.2,38.2,8.3,38.2,26.3
			C284,253.4,268.9,263.9,242.3,263.9z"/>
	</g>
</g>
</svg>
