<?xml version="1.0" encoding="utf-8"?>
<!-- Generator: Adobe Illustrator 21.0.2, SVG Export Plug-In . SVG Version: 6.00 Build 0)  -->
<svg version="1.1" id="Layer_1" xmlns="http://www.w3.org/2000/svg" xmlns:xlink="http://www.w3.org/1999/xlink" x="0px" y="0px"
	 viewBox="0 0 432 432" style="enable-background:new 0 0 432 432;" xml:space="preserve">
<style type="text/css">
	.st0{fill:#001D26;}
	.st1{fill:#31C5F0;}
</style>
<g>
	<g>
		<path class="st0" d="M216,385.9c-93.6,0-169.9-76.3-169.9-169.9S122.4,46.1,216,46.1S385.9,122.4,385.9,216S309.6,385.9,216,385.9
			z"/>
		<path class="st1" d="M216,56.5c87.8,0,159.5,71.6,159.5,159.5S303.8,375.5,216,375.5S56.5,303.8,56.5,216S128.2,56.5,216,56.5
			 M216,36c-99.4,0-180,80.6-180,180s80.6,180,180,180s180-80.6,180-180S315.4,36,216,36L216,36z"/>
	</g>
	<path class="st1" d="M275.4,199.1c-10.1,0-13.7,5-13.7,9.4c0,4.7,2.2,7.9,15.8,14.8c20.2,9.7,26.6,19.1,26.6,32.8
		c0,20.5-15.8,31.7-37.1,31.7c-11.2,0-20.9-2.2-26.3-5.4c-0.7-0.4-1.1-1.1-1.1-2.2v-18.7c0-1.4,0.7-1.8,1.4-1.1
		c7.9,5.4,17.3,7.6,25.9,7.6c10.1,0,14.4-4.3,14.4-10.1c0-4.7-2.9-8.6-15.8-15.5c-18.4-8.6-25.9-17.6-25.9-32.4
		c0-16.6,13-30.2,35.6-30.2c11.2,0,18.7,1.8,23,3.6c1.1,0.7,1.4,1.8,1.4,2.5v17.6c0,1.1-0.7,1.8-1.8,1.4
		C292.3,201.2,284,199.1,275.4,199.1L275.4,199.1z M164.9,214.6c2.9,0.4,5.4,0.4,10.4,0.4c15.1,0,29.2-5.4,29.2-25.6
		c0-16.2-10.1-24.5-27.4-24.5c-5,0-10.1,0.4-12.2,0.4C164.9,165.2,164.9,214.6,164.9,214.6z M142.2,146.2c0-0.7,1.8-1.4,2.9-1.4
		c8.3-0.4,20.5-0.7,33.1-0.7c35.6,0,49.3,19.4,49.3,44.6c0,32.8-23.8,46.8-52.6,46.8c-5,0-6.5-0.4-10.1-0.4v49.3
		c0,1.1-0.4,1.4-1.4,1.4h-19.8c-1.1,0-1.4-0.4-1.4-1.4L142.2,146.2L142.2,146.2z"/>
</g>
</svg>
