<?xml version="1.0" encoding="utf-8"?>
<!-- Generator: Adobe Illustrator 21.0.2, SVG Export Plug-In . SVG Version: 6.00 Build 0)  -->
<svg version="1.1" id="Layer_1" xmlns="http://www.w3.org/2000/svg" xmlns:xlink="http://www.w3.org/1999/xlink" x="0px" y="0px"
	 viewBox="0 0 432 432" style="enable-background:new 0 0 432 432;" xml:space="preserve">
<style type="text/css">
	.st0{fill:#292929;}
	.st1{fill:#00DBFC;}
</style>
<g>
	<g>
		<g>
			<g>
				<g>
					<circle class="st0" cx="216" cy="216" r="180"/>
				</g>
			</g>
		</g>
	</g>
	<g>
		<circle class="st1" cx="216" cy="215.6" r="19.8"/>
		<path class="st1" d="M315.4,196.2c-6.8-5.8-16.6-10.8-28.1-14.8c-2.2-0.7-4.7-1.4-7.2-2.2c0.4-1.8,0.7-3.2,1.1-5
			c5.4-26.6,1.4-47.5-10.1-54.4c-5.8-3.2-13.7-3.2-22.7,0c-8.3,3.2-17.6,9-26.6,16.9c-1.8,1.4-3.6,3.2-5.4,5
			c-1.1-1.1-2.5-2.2-3.6-3.2c-20.2-18-40.3-25.2-52.2-18.4c-5.8,3.2-9.7,10.1-11.5,19.8c-1.4,8.6-1.1,19.8,1.4,31.7
			c0.4,2.5,1.1,4.7,1.8,7.2c-2.9,0.7-5.8,1.8-8.3,2.5c-24.1,8.3-38.5,21.2-38.5,34.2c0,6.8,4,14,11.5,20.2
			c7.2,6.1,17.3,11.5,28.8,15.5c1.8,0.7,4,1.4,6.1,1.8c-0.7,2.5-1.1,5.4-1.8,7.9c-4.7,24.8-0.7,43.9,10.4,50.4
			c2.9,1.8,6.5,2.5,10.4,2.5c4,0,8.3-0.7,13-2.5c9-3.2,18.4-9,27.7-17.3c1.4-1.4,3.2-2.9,4.7-4.3c2.2,1.8,4,3.6,6.1,5.4
			c14,12.2,27.7,18.7,38.5,18.7c4,0,7.6-0.7,10.4-2.5c5.8-3.6,10.1-10.4,11.9-20.2c1.8-9.4,1.4-20.5-1.1-32.8
			c-0.4-1.8-0.7-4-1.4-5.8c1.4-0.4,2.9-0.7,4-1.4c25.9-8.6,41.8-22.3,41.8-36C326.5,209.2,322.6,202.3,315.4,196.2z M251.6,128.9
			c6.5-2.2,11.5-2.5,14.8-0.7c6.5,3.6,10.8,19.1,5.8,44.3c-0.4,1.4-0.7,2.9-1.1,4.3c-9.4-2.2-19.1-3.6-29.5-4.7
			c-6.1-8.6-12.2-16.6-18.7-23.4c1.8-1.8,3.2-3.2,5-4.7C236.2,136.8,244.4,131.8,251.6,128.9z M247,234c-3.6,6.1-6.8,11.9-10.4,16.9
			c-6.5,0.4-13.3,0.7-20.2,0.7c-6.8,0-13.7-0.4-20.2-0.7c-3.6-5.4-7.6-11.2-10.8-17.3c-3.6-5.8-6.5-11.9-9.4-18
			c2.9-6.1,6.1-11.9,9.4-17.6l0,0c3.6-5.8,7.2-11.5,10.8-17.3c6.5-0.4,13.3-0.7,20.2-0.7s13.7,0.4,20.2,0.7
			c3.6,5.4,7.2,11.2,10.8,16.9c3.6,6.1,6.8,11.9,9.7,17.6C253.4,221.8,250.6,227.9,247,234z M261.4,226.8c2.9,6.8,5.4,13.3,7.6,19.4
			c-6.5,1.4-13.3,2.5-20.5,3.6c2.2-3.6,4.7-7.6,6.8-11.2C257.4,234.7,259.6,230.8,261.4,226.8z M216.4,276.8
			c-4.3-4.7-9-10.1-13.3-15.8c4.3,0,8.6,0.4,13,0.4c4.7,0,9,0,13.3-0.4C225,266.8,220.7,272.2,216.4,276.8z M184,249.8
			c-7.2-0.7-14-1.8-20.5-3.2c1.8-6.5,4.3-13,7.2-19.4c2.2,4,4,7.6,6.1,11.5C179.3,242.6,181.4,246.2,184,249.8z M177.1,193.3
			c-2.2,4-4.3,7.6-6.1,11.5c-2.9-6.5-5-13-7.2-19.1c6.5-1.4,13-2.5,20.2-3.6C181.4,185.8,179.3,189.7,177.1,193.3z M216,155.5
			c4.3,4.7,8.6,10.1,13,15.8c-4.3-0.4-8.6-0.4-13.3-0.4c-4.3,0-8.6,0-13,0.4C207.4,165.6,211.7,160.2,216,155.5z M254.9,193.3
			c-2.2-4-4.3-7.6-6.8-11.2c7.2,0.7,13.7,2.2,20.2,3.6c-1.8,6.1-4.3,12.6-7.2,19.1C259.6,201.2,257.4,197.3,254.9,193.3z
			 M159.5,169.9c-2.2-10.8-2.5-20.5-1.1-28.1c1.1-6.5,3.6-11.2,6.8-13.3c6.5-3.6,22,0,41,17.3c1.1,1.1,2.2,2.2,3.2,3.2
			c-6.5,6.8-12.6,14.8-18.7,23.4c-10.4,1.1-20.5,2.5-29.5,4.7C160.6,174.2,160.2,172.1,159.5,169.9z M149,242.6
			c-23.4-7.9-34.2-19.4-34.2-27c0-7.2,10.1-17.6,32-25.2c2.5-0.7,5-1.8,7.6-2.5c2.9,9,6.5,18.4,10.8,28.1
			c-4.3,9.7-8.3,19.1-10.8,28.4C152.6,243.7,150.8,243.4,149,242.6z M171,304.9c-2.5,0-4.3-0.4-5.8-1.4c-6.1-3.6-10.4-17.3-5.8-40.3
			c0.4-2.5,1.1-4.7,1.4-7.2c9,2.2,19.1,3.6,29.9,4.3c6.1,8.6,12.6,16.6,19.1,23.4c-1.4,1.4-2.9,2.5-4.3,4
			C191.5,299.9,178.9,304.9,171,304.9z M272.9,260.6c4.7,24.1,0,39.2-6.1,42.8c-6.1,3.6-20.2,0.4-37.8-15.1c-1.8-1.4-3.6-3.2-5.4-5
			c6.1-6.8,12.6-14.8,18.7-23.4c10.8-1.1,20.9-2.5,29.9-4.7C272.2,257,272.5,258.8,272.9,260.6z M281.9,242.6
			c-1.1,0.4-2.5,0.7-3.6,1.1c-2.9-8.6-6.5-18.4-11.2-28.1c4.3-9.4,7.9-18.7,10.8-27.7c2.2,0.7,4.3,1.4,6.5,2.2
			c10.4,3.6,19.1,8.3,24.8,13c5,4.3,7.9,8.6,7.9,12.6C317.2,223.2,306,234.7,281.9,242.6z"/>
	</g>
</g>
</svg>
