<?xml version="1.0" encoding="utf-8"?>
<!-- Generator: Adobe Illustrator 21.0.2, SVG Export Plug-In . SVG Version: 6.00 Build 0)  -->
<svg version="1.1" id="Layer_1" xmlns="http://www.w3.org/2000/svg" xmlns:xlink="http://www.w3.org/1999/xlink" x="0px" y="0px"
	 viewBox="0 0 432 432" style="enable-background:new 0 0 432 432;" xml:space="preserve">
<style type="text/css">
	.st0{fill:#0079BF;}
	.st1{fill:#FFFFFF;}
</style>
<g>
	<g>
		<g>
			<g>
				<g>
					<circle class="st0" cx="216" cy="216" r="180"/>
				</g>
			</g>
		</g>
	</g>
	<path class="st1" d="M282.2,127.8H149.8c-12.2,0-22,9.7-22,22v132.1c0,12.2,9.7,22,22,22h132.1c12.2,0,22-9.7,22-22V149.8
		C304.2,137.5,294.5,127.8,282.2,127.8z M204.5,266c0,5.8-4.7,10.4-10.4,10.4h-32.8c-5.8,0-10.4-4.7-10.4-10.4V166
		c0-5.8,4.7-10.4,10.4-10.4H194c5.8,0,10.4,4.7,10.4,10.4C204.5,166,204.5,266,204.5,266z M281.2,222.1c0,5.8-4.7,10.4-10.4,10.4
		H238c-5.8,0-10.4-4.7-10.4-10.4V166c0-5.8,4.7-10.4,10.4-10.4h32.8c5.8,0,10.4,4.7,10.4,10.4V222.1z"/>
</g>
</svg>
